<?xml version="1.0" encoding="utf-8"?>
<svg version="1.1" id="Layer_1" x="0px" y="0px" viewBox="0 0 240 58" style="enable-background:new 0 0 240 58;" xmlns="http://www.w3.org/2000/svg">
  <style type="text/css">
	.st0{fill:#292B94;}
	.st1{fill:#00AFAA;}
</style>
  <path class="st0" d="M39.01,33.71h-4.77V8.01h4.77V33.71z"/>
  <path class="st0" d="M58.05,33.71h-4.71V22.94c0-1.93-1.57-3.5-3.5-3.5s-3.5,1.57-3.5,3.5l0,0v10.77h-4.7V15.28h4.7v1.6  c1.04-1.33,2.63-2.1,4.32-2.1c3.74,0,7.38,2.57,7.38,8L58.05,33.71z"/>
  <path class="st0" d="M69.92,29.43v4.28h-4.5c-3.28,0-4.71-1.74-4.71-4.7v-17.9h4.71v4.17h4.5v4.24h-4.5v8.45  c0,0.85,0.21,1.46,1.35,1.46L69.92,29.43z"/>
  <path class="st0" d="M76.11,25.71v0.11c-0.19,1.8,1.12,3.4,2.91,3.59c0.19,0.02,0.38,0.02,0.58,0.01c1.4,0.12,2.72-0.69,3.24-2h4.78  c-0.75,3.85-3.53,6.27-8,6.27c-5.28,0-8.2-3.35-8.2-8.45v-2.37c0-5.09,2.92-8.45,8.2-8.45s8.2,3.36,8.2,8.45v2.84H76.11z   M76.11,21.79L76.11,21.79h7l0,0c-0.04-1.75-1.49-3.14-3.24-3.1c-0.09,0-0.18,0.01-0.27,0.02c-1.77-0.15-3.33,1.16-3.48,2.94  C76.12,21.7,76.12,21.75,76.11,21.79L76.11,21.79z"/>
  <path class="st0" d="M95.22,33.71h-4.7V15.28h4.7v2c0.86-1.54,2.52-2.44,4.28-2.32h1.42v4.6H98.7c-1.82-0.11-3.38,1.27-3.49,3.09  c-0.01,0.16-0.01,0.31,0,0.47L95.22,33.71z"/>
  <path class="st0" d="M103.18,25.44h4.92c0.27,2.14,2.18,3.68,4.32,3.49c2.11,0,3.57-0.78,3.57-2.49c0-1.39-0.82-2.18-2.57-2.64  l-4.21-1.09c-3.47-0.7-5.9-3.84-5.71-7.38c0-5,3.92-7.27,8.27-7.27c5,0,8.09,2.92,8.63,7.16h-4.92c-0.43-1.67-2.18-2.42-3.78-2.42  c-2,0-3.42,0.78-3.42,2.53c0,1.46,1.14,2.1,2.49,2.46l4.07,1.1c3.85,1,5.91,3.39,5.91,7.6c0,4.49-2.92,7.23-8.34,7.23  S103.42,30.39,103.18,25.44z"/>
  <path class="st0" d="M132.15,35.31c-1,2.78-1.28,4.81-4.56,4.81h-3.49v-4.24h2c0.56,0.07,1.09-0.28,1.25-0.82l0.53-1.5l-6.56-18.39  h5l4.09,11.73l4.01-11.73h5L132.15,35.31z"/>
  <path class="st0" d="M138.96,27.36h4.71c0.21,1.43,1.88,2.07,3.42,2.07c0.92,0,2.31-0.21,2.31-1.43c0-0.74-0.53-1.17-1.64-1.42  l-3.84-0.87c-2.68-0.51-4.59-2.89-4.5-5.62c0-3.6,3.24-5.67,7-5.67s6.81,1.79,7.13,6h-4.81c-0.28-1.11-1.33-1.84-2.47-1.71  c-1.36,0-2.14,0.53-2.18,1.39c-0.04,0.86,0.64,1.17,1.43,1.35l4.13,0.93c2.72,0.46,4.65,2.91,4.46,5.66c0,4.1-3.32,5.67-7.17,5.67  S139.14,31.71,138.96,27.36z"/>
  <path class="st0" d="M171.6,25.71v0.11c-0.19,1.8,1.12,3.4,2.91,3.59c0.19,0.02,0.38,0.02,0.58,0.01c1.4,0.12,2.72-0.69,3.24-2h4.78  c-0.75,3.85-3.53,6.27-8,6.27c-5.28,0-8.2-3.35-8.2-8.45v-2.37c0-5.09,2.92-8.45,8.2-8.45s8.2,3.36,8.2,8.45v2.84H171.6z   M171.6,21.79L171.6,21.79h6.95l0,0c-0.04-1.75-1.5-3.13-3.25-3.09c-0.07,0-0.14,0.01-0.21,0.01c-1.77-0.15-3.33,1.16-3.48,2.94  C171.6,21.7,171.6,21.75,171.6,21.79L171.6,21.79z"/>
  <path class="st0" d="M202.18,33.71h-4.71V22.94c0.1-1.87-1.33-3.47-3.2-3.57s-3.47,1.33-3.57,3.2c-0.01,0.12-0.01,0.25,0,0.37v10.77  h-4.7V15.28h4.7v1.53c1.01-1.27,2.55-2.01,4.17-2c1.97-0.07,3.84,0.84,5,2.43c1.42-1.67,3.54-2.57,5.73-2.43c4.67,0,8.09,2.6,8.09,8  v10.9h-4.7V22.94c0.1-1.87-1.33-3.47-3.2-3.57s-3.47,1.33-3.57,3.2c-0.01,0.12-0.01,0.25,0,0.37L202.18,33.71z"/>
  <path class="st0" d="M215.42,27.36h4.7c0.22,1.43,1.89,2.07,3.42,2.07c0.93,0,2.32-0.21,2.32-1.43c0-0.74-0.53-1.17-1.64-1.42  l-3.8-0.87c-2.69-0.5-4.61-2.89-4.52-5.63c0-3.6,3.24-5.67,7-5.67s6.8,1.79,7.13,6h-4.82c-0.28-1.1-1.34-1.83-2.47-1.7  c-1.35,0-2.13,0.53-2.17,1.39c-0.04,0.86,0.64,1.17,1.43,1.35l4.13,0.93c2.72,0.46,4.65,2.91,4.46,5.66c0,4.1-3.32,5.67-7.17,5.67  S215.62,31.71,215.42,27.36z"/>
  <path class="st0" d="M164.9,29.43v4.28h-4.48c-3.28,0-4.7-1.74-4.7-4.7v-17.9h4.7v4.17h4.53v4.24h-4.53v8.45  c0,0.85,0.22,1.46,1.36,1.46L164.9,29.43z"/>
  <polygon class="st0" points="8.76,8.79 1.71,5.27 1.71,50.04 15.81,57.09 15.81,49.21 8.76,45.68 "/>
  <polygon class="st1" points="15.81,49.21 22.87,52.74 22.87,7.97 8.76,0.91 8.76,8.79 15.81,12.32 "/>
  <path class="st0" d="M35.92,50.91h4.09v1.87h-6v-9.81h1.91V50.91z"/>
  <path class="st0" d="M42.47,49.79L42.47,49.79c-0.07,0.71,0.44,1.34,1.15,1.42c0.07,0.01,0.15,0.01,0.22,0  c0.55,0.04,1.07-0.28,1.27-0.8h1.88c-0.24,1.52-1.62,2.6-3.15,2.47c-1.65,0.13-3.1-1.1-3.23-2.75c-0.02-0.19-0.01-0.38,0.01-0.57  v-0.85c0-1.78,1.44-3.22,3.22-3.22c1.78,0,3.22,1.44,3.22,3.22c0,0,0,0,0,0v1.12L42.47,49.79z M42.47,48.25L42.47,48.25h2.73l0,0  c-0.01-0.69-0.57-1.24-1.27-1.23c-0.03,0-0.06,0-0.09,0c-0.7-0.06-1.31,0.47-1.37,1.17C42.47,48.21,42.47,48.23,42.47,48.25z"/>
  <path class="st0" d="M52.85,48.07c-0.19-0.75-0.96-1.2-1.71-1c-0.4,0.1-0.74,0.38-0.91,0.75h-1.82c0.24-1.52,1.61-2.6,3.14-2.47  c1.65-0.11,3.08,1.15,3.19,2.8c0.01,0.19,0.01,0.37-0.02,0.56v4.11h-1.85v-0.83c-0.42,0.69-1.2,1.07-2,1  c-1.66,0-2.64-0.82-2.64-2.15c-0.08-0.95,0.48-1.83,1.38-2.15c1.05-0.33,2.15-0.51,3.25-0.54L52.85,48.07z M50.08,50.56  c0,0.35,0.27,0.73,1.1,0.73c0.83,0.11,1.58-0.48,1.69-1.31c0.01-0.04,0.01-0.09,0.01-0.13v-0.24c-0.82,0-1.63,0.12-2.41,0.34  C50.21,50.04,50.05,50.29,50.08,50.56z"/>
  <path class="st0" d="M58.16,52.78h-1.85v-7.23h1.85v0.78c0.34-0.6,0.99-0.95,1.68-0.91h0.58v1.81h-0.87  c-0.72-0.04-1.33,0.51-1.37,1.22c0,0.06,0,0.12,0,0.18L58.16,52.78z"/>
  <path class="st0" d="M67.85,52.78H66v-4.22c0-0.76-0.61-1.37-1.37-1.37s-1.37,0.61-1.37,1.37c0,0,0,0,0,0v4.22h-1.84v-7.23h1.85  v0.63c0.4-0.52,1.03-0.83,1.69-0.83c1.58-0.02,2.89,1.24,2.91,2.83c0,0.1,0,0.21-0.01,0.31L67.85,52.78z"/>
  <path class="st0" d="M71.28,44.61h-1.86v-1.64h1.85L71.28,44.61z M71.28,52.78h-1.86v-7.23h1.85L71.28,52.78z"/>
  <path class="st0" d="M79.42,52.78h-1.87v-4.22c0-0.76-0.61-1.37-1.37-1.37s-1.37,0.61-1.37,1.37c0,0,0,0,0,0v4.22h-1.85v-7.23h1.85  v0.63c0.4-0.52,1.03-0.83,1.69-0.83c1.58-0.03,2.9,1.22,2.93,2.81c0,0.11,0,0.22-0.01,0.33V52.78z"/>
  <path class="st0" d="M82.62,52.82c0.12,0.63,0.7,1.06,1.33,1c0.71,0.05,1.33-0.48,1.38-1.19c0.01-0.08,0-0.15,0-0.23v-0.84  c-0.41,0.52-1.04,0.83-1.7,0.83c-1.58,0.02-2.89-1.24-2.91-2.83c0-0.1,0-0.21,0.01-0.31v-0.77c-0.15-1.58,1.01-2.98,2.59-3.13  c0.1-0.01,0.21-0.01,0.31-0.01c0.66,0,1.29,0.31,1.7,0.83v-0.63h1.85v6.62c0.18,1.65-1,3.13-2.65,3.31  c-0.19,0.02-0.39,0.02-0.58,0.01c-1.61,0.14-3.04-1.06-3.18-2.67L82.62,52.82z M82.62,49.19c-0.06,0.76,0.5,1.43,1.26,1.49  c0.76,0.06,1.43-0.5,1.49-1.26c0.01-0.08,0.01-0.16,0-0.23v-0.63c0.06-0.76-0.5-1.43-1.26-1.49c-0.76-0.06-1.43,0.5-1.49,1.26  c-0.01,0.08-0.01,0.16,0,0.23V49.19z"/>
  <path class="st0" d="M82.62,52.82c0.12,0.63,0.7,1.06,1.33,1c0.71,0.05,1.33-0.48,1.38-1.19c0.01-0.08,0-0.15,0-0.23v-0.84  c-0.41,0.52-1.04,0.83-1.7,0.83c-1.58,0.02-2.89-1.24-2.91-2.83c0-0.1,0-0.21,0.01-0.31v-0.77c-0.15-1.58,1.01-2.98,2.59-3.13  c0.1-0.01,0.21-0.01,0.31-0.01c0.66,0,1.29,0.31,1.7,0.83v-0.63h1.85v6.62c0.18,1.65-1,3.13-2.65,3.31  c-0.19,0.02-0.39,0.02-0.58,0.01c-1.61,0.14-3.04-1.06-3.18-2.67L82.62,52.82z M82.62,49.19c-0.06,0.76,0.5,1.43,1.26,1.49  c0.76,0.06,1.43-0.5,1.49-1.26c0.01-0.08,0.01-0.16,0-0.23v-0.63c0.06-0.76-0.5-1.43-1.26-1.49c-0.76-0.06-1.43,0.5-1.49,1.26  c-0.01,0.08-0.01,0.16,0,0.23V49.19z"/>
  <text style="fill: rgb(1, 175, 170); font-family: Arial, sans-serif; font-size: 4.09344px; font-weight: 700; paint-order: fill; white-space: pre;" transform="matrix(3.305965, 0, 0, 3.420107, -270.491943, -111.039215)" x="109.224" y="47.894">Overview</text>
</svg>